<?xml version="1.0" encoding="UTF-8"?>
<!DOCTYPE svg PUBLIC "-//W3C//DTD SVG 1.1//EN" "http://www.w3.org/Graphics/SVG/1.1/DTD/svg11.dtd">
<!-- Creator: CorelDRAW (Evaluation Version) -->
<svg xmlns="http://www.w3.org/2000/svg" xml:space="preserve" width="0.710496in" height="0.600575in" version="1.1" style="shape-rendering:geometricPrecision; text-rendering:geometricPrecision; image-rendering:optimizeQuality; fill-rule:evenodd; clip-rule:evenodd"
viewBox="0 0 8.51 7.2"
 xmlns:xlink="http://www.w3.org/1999/xlink"
 xmlns:xodm="http://www.corel.com/coreldraw/odm/2003">
 <defs>
  <style type="text/css">
   <![CDATA[
    .fil1 {fill:white}
    .fil0 {fill:white;fill-rule:nonzero}
   ]]>
  </style>
 </defs>
 <g id="Layer_x0020_1">
  <metadata id="CorelCorpID_0Corel-Layer"/>
  <g id="_534366456">
   <g>
    <path class="fil0" d="M0.29 6.62c0.08,0 0.15,0.03 0.21,0.08 0.05,0.05 0.08,0.12 0.08,0.21 0,0.08 -0.03,0.15 -0.08,0.21 -0.05,0.05 -0.12,0.08 -0.21,0.08 -0.08,0 -0.15,-0.03 -0.21,-0.08 -0.05,-0.05 -0.08,-0.12 -0.08,-0.21 0,-0.08 0.03,-0.15 0.08,-0.21 0.05,-0.05 0.12,-0.08 0.21,-0.08zm0.18 0.11c-0.05,-0.05 -0.11,-0.07 -0.18,-0.07 -0.07,0 -0.13,0.03 -0.18,0.07 -0.05,0.05 -0.07,0.11 -0.07,0.18 0,0.07 0.03,0.13 0.07,0.18 0.05,0.05 0.11,0.07 0.18,0.07 0.07,0 0.13,-0.03 0.18,-0.07 0.05,-0.05 0.07,-0.11 0.07,-0.18 0,-0.07 -0.03,-0.13 -0.07,-0.18z"/>
    <path class="fil0" d="M0.15 7.07l0 -0.33 0.15 0c0.03,0 0.05,0 0.07,0.01 0.02,0.01 0.03,0.02 0.04,0.03 0.01,0.01 0.01,0.03 0.01,0.05 0,0.02 -0.01,0.04 -0.02,0.06 -0.02,0.02 -0.04,0.03 -0.07,0.03 0.01,0.01 0.02,0.01 0.03,0.02 0.01,0.01 0.02,0.03 0.04,0.04l0.06 0.09 -0.05 0 -0.04 -0.07c-0.01,-0.02 -0.02,-0.03 -0.03,-0.05 -0.01,-0.01 -0.02,-0.02 -0.02,-0.02 -0.01,-0 -0.01,-0.01 -0.02,-0.01 -0,-0 -0.01,-0 -0.02,-0l-0.05 0 0 0.15 -0.04 0zm0.04 -0.18l0.09 0c0.02,0 0.04,-0 0.05,-0.01 0.01,-0 0.02,-0.01 0.03,-0.02 0.01,-0.01 0.01,-0.02 0.01,-0.03 0,-0.02 -0.01,-0.03 -0.02,-0.04 -0.01,-0.01 -0.03,-0.02 -0.05,-0.02l-0.1 0 0 0.11z"/>
   </g>
   <g>
    <path class="fil1" d="M7.8 1.16c0.09,0.24 0.14,0.49 0.15,0.74 0.13,0.16 0.26,0.32 0.37,0.49 -0.02,0.05 -0.05,0.08 -0.1,0.1 -0.45,-0.19 -0.94,-0.4 -1.39,-0.57 -0.19,-1.14 -1.6,-0.9 -1.53,-0.05 0.03,0.32 0.16,0.42 0.38,0.62 1.63,1.48 2.75,1.63 2.83,4.7 -0.36,0 -0.73,0 -1.09,0 0.21,-2.97 -2.6,-3.1 -3.14,-4.77 -0.76,-2.33 2.41,-3.42 3.51,-1.27z"/>
    <path class="fil1" d="M6.58 7.2c-0.38,0 -0.76,-0 -1.14,-0 -0.13,-1.9 -1.24,-2.62 -3.17,-2.62l-0.2 -1.09c2.39,0 4.31,0.67 4.51,3.72z"/>
    <path class="fil1" d="M-0 3.48c0.38,0 0.76,0 1.14,0 0.13,1.9 1.24,2.62 3.17,2.62l0.2 1.09c-2.39,0 -4.31,-0.67 -4.51,-3.72z"/>
   </g>
  </g>
 </g>
</svg>
