<?xml version="1.0" encoding="UTF-8"?>
<!DOCTYPE svg PUBLIC "-//W3C//DTD SVG 1.1//EN" "http://www.w3.org/Graphics/SVG/1.1/DTD/svg11.dtd">
<!-- Creator: CorelDRAW (Evaluation Version) -->
<svg xmlns="http://www.w3.org/2000/svg" xml:space="preserve" width="0.710496in" height="0.600575in" version="1.1" style="shape-rendering:geometricPrecision; text-rendering:geometricPrecision; image-rendering:optimizeQuality; fill-rule:evenodd; clip-rule:evenodd"
viewBox="0 0 8.42 7.12"
 xmlns:xlink="http://www.w3.org/1999/xlink"
 xmlns:xodm="http://www.corel.com/coreldraw/odm/2003">
 <defs>
  <style type="text/css">
   <![CDATA[
    .fil1 {fill:black}
    .fil0 {fill:black;fill-rule:nonzero}
   ]]>
  </style>
 </defs>
 <g id="Layer_x0020_1">
  <metadata id="CorelCorpID_0Corel-Layer"/>
  <g id="_536305048">
   <g>
    <path class="fil0" d="M0.29 6.54c0.08,0 0.15,0.03 0.2,0.08 0.05,0.05 0.08,0.12 0.08,0.2 0,0.08 -0.03,0.15 -0.08,0.2 -0.05,0.05 -0.12,0.08 -0.2,0.08 -0.08,0 -0.15,-0.03 -0.2,-0.08 -0.05,-0.05 -0.08,-0.12 -0.08,-0.2 0,-0.08 0.03,-0.15 0.08,-0.2 0.05,-0.05 0.12,-0.08 0.2,-0.08zm0.18 0.11c-0.05,-0.05 -0.11,-0.07 -0.18,-0.07 -0.07,0 -0.13,0.03 -0.18,0.07 -0.05,0.05 -0.07,0.11 -0.07,0.18 0,0.07 0.03,0.13 0.07,0.18 0.05,0.05 0.11,0.07 0.18,0.07 0.07,0 0.13,-0.03 0.18,-0.07 0.05,-0.05 0.07,-0.11 0.07,-0.18 0,-0.07 -0.03,-0.13 -0.07,-0.18z"/>
    <path class="fil0" d="M0.14 6.99l0 -0.32 0.14 0c0.03,0 0.05,0 0.07,0.01 0.02,0.01 0.03,0.02 0.04,0.03 0.01,0.01 0.01,0.03 0.01,0.05 0,0.02 -0.01,0.04 -0.02,0.06 -0.01,0.02 -0.04,0.03 -0.07,0.03 0.01,0.01 0.02,0.01 0.03,0.02 0.01,0.01 0.02,0.03 0.04,0.04l0.06 0.09 -0.05 0 -0.04 -0.07c-0.01,-0.02 -0.02,-0.03 -0.03,-0.04 -0.01,-0.01 -0.02,-0.02 -0.02,-0.02 -0.01,-0 -0.01,-0.01 -0.02,-0.01 -0,-0 -0.01,-0 -0.02,-0l-0.05 0 0 0.14 -0.04 0zm0.04 -0.18l0.09 0c0.02,0 0.03,-0 0.05,-0.01 0.01,-0 0.02,-0.01 0.03,-0.02 0.01,-0.01 0.01,-0.02 0.01,-0.03 0,-0.02 -0.01,-0.03 -0.02,-0.04 -0.01,-0.01 -0.03,-0.01 -0.05,-0.01l-0.1 0 0 0.11z"/>
   </g>
   <g>
    <path class="fil1" d="M7.71 1.15c0.08,0.24 0.13,0.48 0.15,0.73 0.13,0.16 0.25,0.32 0.37,0.49 -0.02,0.05 -0.05,0.08 -0.1,0.1 -0.44,-0.18 -0.93,-0.39 -1.37,-0.56 -0.19,-1.13 -1.58,-0.89 -1.51,-0.05 0.03,0.32 0.15,0.41 0.37,0.61 1.61,1.46 2.72,1.61 2.8,4.65 -0.36,0 -0.72,0 -1.08,0 0.21,-2.94 -2.57,-3.06 -3.11,-4.72 -0.75,-2.3 2.38,-3.38 3.47,-1.25z"/>
    <path class="fil1" d="M6.51 7.11c-0.38,0 -0.75,-0 -1.13,-0 -0.13,-1.88 -1.23,-2.59 -3.13,-2.59l-0.2 -1.08c2.36,0 4.26,0.67 4.45,3.67z"/>
    <path class="fil1" d="M-0 3.44c0.38,0 0.75,0 1.13,0 0.13,1.88 1.23,2.59 3.13,2.59l0.2 1.08c-2.36,0 -4.26,-0.67 -4.45,-3.67z"/>
   </g>
  </g>
 </g>
</svg>
